# Rhino

g door_01
v 4.3182792663574219 0 -6.9692306518554688
v 4.3182792663574219 1 -6.0692305564880371
v 4.3182792663574219 1 -6.9692306518554688
v 4.3182792663574219 1 -6.5192303657531738
v 4.3182792663574219 0.5 -6.9692306518554688
v 4.3182792663574219 0 -6.0692305564880371
v 4.3182792663574219 0.5 -6.0692305564880371
f 1 6 7 2 4 3 5
g door_03
v 2.7468786239624023 0 -4.1187620162963867
v 1.8468786478042603 0 -4.1187620162963867
v 2.7468786239624023 1 -4.1187620162963867
v 1.8468786478042603 1 -4.1187620162963867
v 2.2968785762786865 1 -4.1187620162963867
v 1.8468786478042603 0.5 -4.1187620162963867
v 2.7468786239624023 0.5 -4.1187620162963867
f 13 9 8 14 10 12 11
g door_02
v 4.3182792663574219 0 -1.4135149717330933
v 4.3182792663574219 1 -1.4135149717330933
v 4.3182792663574219 1 -1.8635149002075195
v 4.3182792663574219 1 -2.3135149478912354
v 4.3182792663574219 0.5 -2.3135149478912354
v 4.3182792663574219 0 -2.3135149478912354
v 4.3182792663574219 0.5 -1.4135149717330933
f 15 21 16 17 18 19 20
