# Rhino

g Room_01
v -8.7085627598071369E-10 3 -4.1187615394592285
v 4.3182792663574219 3 -4.1187615394592285
v -8.7085627598071369E-10 3 -2.4738258730394591E-07
v 4.3182792663574219 3 -2.4738258730394591E-07
v -8.7085627598071369E-10 3 -2.0593807697296143
v 2.1591396331787109 3 -2.4738258730394591E-07
v 4.3182792663574219 3 -2.0593807697296143
v 2.1591396331787109 3 -4.1187615394592285
v 4.3182792663574219 0 -4.1187615394592285
v -8.7085627598071369E-10 0 -4.1187615394592285
v 2.1591396331787109 0 -4.1187615394592285
v -8.7085627598071369E-10 0 -2.4738258730394591E-07
v -8.7085627598071369E-10 0 -2.0593807697296143
v 4.3182792663574219 0 -2.4738258730394591E-07
v 2.1591396331787109 0 -2.4738258730394591E-07
v 4.3182792663574219 0 -2.0593807697296143
f 8 1 5 3 6 4 7 2
f 8 2 9 11 10 1
f 5 1 10 13 12 3
f 6 3 12 15 14 4
f 7 4 14 16 9 2
f 13 10 11 9 16 14 15 12
g Room_02
v 4.3182792663574219 3 -4.1187615394592285
v -8.7085627598071369E-10 3 -4.1187615394592285
v 4.3182792663574219 3 -8
v -8.7085627598071369E-10 3 -8
v 4.3182792663574219 3 -6.0593819618225098
v 2.1591396331787109 3 -8
v -8.7085627598071369E-10 3 -6.0593819618225098
v 2.1591396331787109 3 -4.1187615394592285
v -8.7085627598071369E-10 0 -4.1187615394592285
v 4.3182792663574219 0 -4.1187615394592285
v 4.3182792663574219 1.5 -4.1187615394592285
v 2.1591396331787109 0 -4.1187615394592285
v -8.7085627598071369E-10 1.5 -4.1187615394592285
v 4.3182792663574219 0 -8
v 4.3182792663574219 0 -6.0593819618225098
v 4.3182792663574219 1.5 -8
v -8.7085627598071369E-10 0 -8
v 2.1591396331787109 0 -8
v -8.7085627598071369E-10 1.5 -8
v -8.7085627598071369E-10 0 -6.0593819618225098
f 24 17 21 19 22 20 23 18
f 29 25 28 26 27 17 24 18
f 27 26 31 30 32 19 21 17
f 32 30 34 33 35 20 22 19
f 35 33 36 25 29 18 23 20
f 36 33 34 30 31 26 28 25
g Room_03
v 10 3 -3.2110731601715088
v 10 3 -8
v 4.3182792663574219 3 -3.2110731601715088
v 4.3182792663574219 3 -8
v 7.1591396331787109 3 -3.2110731601715088
v 4.3182792663574219 3 -5.6055359840393066
v 7.1591396331787109 3 -8
v 10 3 -5.6055359840393066
v 10 0 -8
v 10 0 -3.2110731601715088
v 10 0 -5.6055359840393066
v 4.3182792663574219 0 -3.2110731601715088
v 7.1591396331787109 0 -3.2110731601715088
v 4.3182792663574219 0 -8
v 4.3182792663574219 0 -5.6055359840393066
v 7.1591396331787109 0 -8
f 41 37 44 38 43 40 42 39
f 47 45 38 44 37 46
f 49 46 37 41 39 48
f 51 48 39 42 40 50
f 52 50 40 43 38 45
f 47 46 49 48 51 50 52 45
g Room_04
v 10 3 -3.2110731601715088
v 10 3 -2.4738258730394591E-07
v 4.3182792663574219 3 -3.2110731601715088
v 4.3182792663574219 3 -2.4738258730394591E-07
v 7.1591396331787109 3 -3.2110731601715088
v 4.3182792663574219 3 -1.6055366992950439
v 7.1591396331787109 3 -2.4738258730394591E-07
v 10 3 -1.6055366992950439
v 10 0 -2.4738258730394591E-07
v 10 0 -3.2110731601715088
v 10 1.5 -3.2110731601715088
v 10 0 -1.6055366992950439
v 10 1.5 -2.4738258730394591E-07
v 4.3182792663574219 0 -3.2110731601715088
v 4.3182792663574219 1.5 -3.2110731601715088
v 7.1591396331787109 0 -3.2110731601715088
v 4.3182792663574219 0 -2.4738258730394591E-07
v 4.3182792663574219 0 -1.6055366992950439
v 4.3182792663574219 1.5 -2.4738258730394591E-07
v 7.1591396331787109 0 -2.4738258730394591E-07
f 60 53 57 55 58 56 59 54
f 65 61 64 62 63 53 60 54
f 63 62 68 66 67 55 57 53
f 67 66 70 69 71 56 58 55
f 71 69 72 61 65 54 59 56
f 68 62 64 61 72 69 70 66
