# Rhino

v -5.6817207336425781 3 -4.1187620162963867
v -10 3 -4.1187620162963867
v -5.6817207336425781 3 -8
v -10 3 -8
vt 0 0
vt 0 1
vt 1 0
vt 1 1
vn 0 1 0
vn 0 1 0
vn 0 1 0
vn 0 1 0
f 4/4/4 2/2/2 1/1/1 3/3/3
v -10 3 -4.1187620162963867
v -5.6817207336425781 3 -4.1187620162963867
v -10 3 0
v -5.6817207336425781 3 0
vt 0 0
vt 0 1
vt 1 0
vt 1 1
vn 0 1 0
vn 0 1 0
vn 0 1 0
vn 0 1 0
f 8/8/8 6/6/6 5/5/5 7/7/7
v 0 3 -3.2110724449157715
v 0 3 -8
v -5.6817207336425781 3 -3.2110724449157715
v -5.6817207336425781 3 -8
vt 0 0
vt 0 1
vt 1 0
vt 1 1
vn 0 -1 0
vn 0 -1 0
vn 0 -1 0
vn 0 -1 0
f 12/12/12 10/10/10 9/9/9 11/11/11
v 0 3 -3.2110724449157715
v 0 3 0
v -5.6817207336425781 3 -3.2110724449157715
v -5.6817207336425781 3 0
vt 0 0
vt 0 1
vt 1 0
vt 1 1
vn 0 1 0
vn 0 1 0
vn 0 1 0
vn 0 1 0
f 16/16/16 14/14/14 13/13/13 15/15/15
v -5.6817207336425781 0 -4.1187620162963867
v -10 0 -4.1187620162963867
v -5.6817207336425781 0 -8
v -10 0 -8
vt 0 0
vt 0 1
vt 1 0
vt 1 1
vn 0 1 0
vn 0 1 0
vn 0 1 0
vn 0 1 0
f 20/20/20 18/18/18 17/17/17 19/19/19
v -10 0 -4.1187620162963867
v -5.6817207336425781 0 -4.1187620162963867
v -10 0 0
v -5.6817207336425781 0 0
vt 0 0
vt 0 1
vt 1 0
vt 1 1
vn 0 1 0
vn 0 1 0
vn 0 1 0
vn 0 1 0
f 24/24/24 22/22/22 21/21/21 23/23/23
v 0 0 -3.2110724449157715
v 0 0 -8
v -5.6817207336425781 0 -3.2110724449157715
v -5.6817207336425781 0 -8
vt 0 0
vt 0 1
vt 1 0
vt 1 1
vn 0 -1 0
vn 0 -1 0
vn 0 -1 0
vn 0 -1 0
f 28/28/28 26/26/26 25/25/25 27/27/27
v 0 0 -3.2110724449157715
v 0 0 0
v -5.6817207336425781 0 -3.2110724449157715
v -5.6817207336425781 0 0
vt 0 0
vt 0 1
vt 1 0
vt 1 1
vn 0 1 0
vn 0 1 0
vn 0 1 0
vn 0 1 0
f 32/32/32 30/30/30 29/29/29 31/31/31
v -10 0 -4.1187620162963867
v -5.6817207336425781 0 -4.1187620162963867
v -10 3 -4.1187620162963867
v -5.6817207336425781 3 -4.1187620162963867
v -5.6817207336425781 1.5 -4.1187620162963867
v -10 1.5 -4.1187620162963867
v -5.6817207336425781 0 -4.1187620162963867
v -5.6817207336425781 0 -8
v -5.6817207336425781 3 -4.1187620162963867
v -5.6817207336425781 3 -8
v -5.6817207336425781 1.5 -4.1187620162963867
v -5.6817207336425781 1.5 -8
v -5.6817207336425781 0 -8
v -10 0 -8
v -5.6817207336425781 3 -8
v -10 3 -8
v -5.6817207336425781 1.5 -8
v -10 1.5 -8
v -10 0 -8
v -10 0 -4.1187620162963867
v -10 3 -8
v -10 3 -4.1187620162963867
v -10 1.5 -8
v -10 1.5 -4.1187620162963867
vt 0.3333333432674408 0.3333333432674408
vt 0.3333333432674408 0.81167733669281006
vt 0.66520184278488159 0.3333333432674408
vt 0.66520184278488159 0.81167733669281006
vt 0.499267578125 0.81167733669281006
vt 0.499267578125 0.3333333432674408
vt 0 0.3333333432674408
vt 0 0.76458197832107544
vt 0.3318684995174408 0.3333333432674408
vt 0.3318684995174408 0.76458197832107544
vt 0.1659342497587204 0.3333333432674408
vt 0.1659342497587204 0.76458197832107544
vt 0.66666668653488159 0
vt 0.66666668653488159 0.47980880737304688
vt 0.99853515625 0
vt 0.99853515625 0.47980880737304688
vt 0.83260089159011841 0
vt 0.83260089159011841 0.47980880737304688
vt 0.43124866485595703 0
vt 0 0
vt 0.43124866485595703 0.3318684995174408
vt 0 0.3318684995174408
vt 0.43124866485595703 0.1659342497587204
vt 0 0.1659342497587204
vn 0 0 -1
vn 0 0 -1
vn 0 0 -1
vn 0 0 -1
vn 0 0 -1
vn 0 0 -1
vn -1 0 0
vn -1 0 0
vn -1 0 0
vn -1 0 0
vn -1 0 0
vn -1 0 0
vn 0 0 1
vn 0 0 1
vn 0 0 1
vn 0 0 1
vn 0 0 1
vn 0 0 1
vn 1 0 0
vn 1 0 0
vn 1 0 0
vn 1 0 0
vn 1 0 0
vn 1 0 0
f 34/34/34 33/33/33 38/38/38 37/37/37
f 35/35/35 36/36/36 37/37/37 38/38/38
f 40/40/40 39/39/39 43/43/43 44/44/44
f 41/41/41 42/42/42 44/44/44 43/43/43
f 46/46/46 45/45/45 49/49/49 50/50/50
f 47/47/47 48/48/48 50/50/50 49/49/49
f 52/52/52 51/51/51 55/55/55 56/56/56
f 53/53/53 54/54/54 56/56/56 55/55/55
v -5.6817207336425781 0 -4.1187620162963867
v -10 0 -4.1187620162963867
v -5.6817207336425781 3 -4.1187620162963867
v -10 3 -4.1187620162963867
v -10 0 -4.1187620162963867
v -10 0 0
v -10 3 -4.1187620162963867
v -10 3 0
v -10 0 0
v -5.6817207336425781 0 0
v -10 3 0
v -5.6817207336425781 3 0
v -5.6817207336425781 0 0
v -5.6817207336425781 0 -4.1187620162963867
v -5.6817207336425781 3 0
v -5.6817207336425781 3 -4.1187620162963867
vt 0.66666668653488159 0
vt 0.66666668653488159 0.47980880737304688
vt 0.99853515625 0
vt 0.99853515625 0.47980880737304688
vt 0 0.3333333432674408
vt 0 0.79097354412078857
vt 0.3318684995174408 0.3333333432674408
vt 0.3318684995174408 0.79097354412078857
vt 0.3333333432674408 0.3333333432674408
vt 0.3333333432674408 0.81167733669281006
vt 0.66520184278488159 0.3333333432674408
vt 0.66520184278488159 0.81167733669281006
vt 0.45764023065567017 0
vt 0 0
vt 0.45764023065567017 0.3318684995174408
vt 0 0.3318684995174408
vn 0 0 1
vn 0 0 1
vn 0 0 1
vn 0 0 1
vn 1 0 0
vn 1 0 0
vn 1 0 0
vn 1 0 0
vn 0 0 -1
vn 0 0 -1
vn 0 0 -1
vn 0 0 -1
vn -1 0 0
vn -1 0 0
vn -1 0 0
vn -1 0 0
f 58/58/58 57/57/57 59/59/59 60/60/60
f 62/62/62 61/61/61 63/63/63 64/64/64
f 66/66/66 65/65/65 67/67/67 68/68/68
f 70/70/70 69/69/69 71/71/71 72/72/72
v 0 0 -8
v 0 0 -3.2110724449157715
v 0 3 -8
v 0 3 -3.2110724449157715
v 0 0 -3.2110724449157715
v -5.6817207336425781 0 -3.2110724449157715
v 0 3 -3.2110724449157715
v -5.6817207336425781 3 -3.2110724449157715
v -5.6817207336425781 0 -3.2110724449157715
v -5.6817207336425781 0 -8
v -5.6817207336425781 3 -3.2110724449157715
v -5.6817207336425781 3 -8
v -5.6817207336425781 0 -8
v 0 0 -8
v -5.6817207336425781 3 -8
v 0 3 -8
vt 0 0.3333333432674408
vt 0 0.8654363751411438
vt 0.3318684995174408 0.3333333432674408
vt 0.3318684995174408 0.8654363751411438
vt 0.66666668653488159 0
vt 0.66666668653488159 0.63130229711532593
vt 0.99853515625 0
vt 0.99853515625 0.63130229711532593
vt 0.53210306167602539 0
vt 0 0
vt 0.53210306167602539 0.3318684995174408
vt 0 0.3318684995174408
vt 0.3333333432674408 0.3333333432674408
vt 0.3333333432674408 0.96317076683044434
vt 0.66520184278488159 0.3333333432674408
vt 0.66520184278488159 0.96317076683044434
vn 1 0 0
vn 1 0 0
vn 1 0 0
vn 1 0 0
vn 0 0 1
vn 0 0 1
vn 0 0 1
vn 0 0 1
vn -1 0 0
vn -1 0 0
vn -1 0 0
vn -1 0 0
vn 0 0 -1
vn 0 0 -1
vn 0 0 -1
vn 0 0 -1
f 74/74/74 73/73/73 75/75/75 76/76/76
f 78/78/78 77/77/77 79/79/79 80/80/80
f 82/82/82 81/81/81 83/83/83 84/84/84
f 86/86/86 85/85/85 87/87/87 88/88/88
v 0 0 0
v 0 0 -3.2110724449157715
v 0 3 0
v 0 3 -3.2110724449157715
v 0 1.5 -3.2110724449157715
v 0 1.5 0
v 0 0 -3.2110724449157715
v -5.6817207336425781 0 -3.2110724449157715
v 0 3 -3.2110724449157715
v -5.6817207336425781 3 -3.2110724449157715
v 0 1.5 -3.2110724449157715
v -2.8408603668212891 3 -3.2110724449157715
v -5.6817207336425781 1.5 -3.2110724449157715
v -2.8408603668212891 0 -3.2110724449157715
v -5.6817207336425781 0 -3.2110724449157715
v -5.6817207336425781 0 0
v -5.6817207336425781 3 -3.2110724449157715
v -5.6817207336425781 3 0
v -5.6817207336425781 1.5 -3.2110724449157715
v -5.6817207336425781 1.5 0
v -5.6817207336425781 0 0
v 0 0 0
v -5.6817207336425781 3 0
v 0 3 0
v -5.6817207336425781 1.5 0
v -2.8408603668212891 3 0
v 0 1.5 0
v -2.8408603668212891 0 0
vt 0 0.3333333432674408
vt 0 0.69011914730072021
vt 0.3318684995174408 0.3333333432674408
vt 0.3318684995174408 0.69011914730072021
vt 0.1659342497587204 0.69011914730072021
vt 0.1659342497587204 0.3333333432674408
vt 0.66666668653488159 0
vt 0.66666668653488159 0.63130229711532593
vt 0.99853515625 0
vt 0.99853515625 0.63130229711532593
vt 0.83260089159011841 0
vt 0.99853515625 0.31565114855766296
vt 0.83260089159011841 0.63130229711532593
vt 0.66666668653488159 0.31565114855766296
vt 0.35678583383560181 0
vt 0 0
vt 0.35678583383560181 0.3318684995174408
vt 0 0.3318684995174408
vt 0.35678583383560181 0.1659342497587204
vt 0 0.1659342497587204
vt 0.3333333432674408 0.3333333432674408
vt 0.3333333432674408 0.96317076683044434
vt 0.66520184278488159 0.3333333432674408
vt 0.66520184278488159 0.96317076683044434
vt 0.499267578125 0.3333333432674408
vt 0.66520184278488159 0.64825206995010376
vt 0.499267578125 0.96317076683044434
vt 0.3333333432674408 0.64825206995010376
vn -1 0 0
vn -1 0 0
vn -1 0 0
vn -1 0 0
vn -1 0 0
vn -1 0 0
vn 0 0 1
vn 0 0 1
vn 0 0 1
vn 0 0 1
vn 0 0 1
vn 0 0 1
vn 0 0 1
vn 0 0 1
vn 1 0 0
vn 1 0 0
vn 1 0 0
vn 1 0 0
vn 1 0 0
vn 1 0 0
vn 0 0 -1
vn 0 0 -1
vn 0 0 -1
vn 0 0 -1
vn 0 0 -1
vn 0 0 -1
vn 0 0 -1
vn 0 0 -1
f 90/90/90 89/89/89 94/94/94 93/93/93
f 91/91/91 92/92/92 93/93/93 94/94/94
f 102/102/102 95/95/95 99/99/99
f 102/102/102 101/101/101 96/96/96
f 101/101/101 102/102/102 99/99/99
f 99/99/99 100/100/100 101/101/101
f 100/100/100 98/98/98 101/101/101
f 97/97/97 100/100/100 99/99/99
f 104/104/104 103/103/103 107/107/107 108/108/108
f 105/105/105 106/106/106 108/108/108 107/107/107
f 116/116/116 109/109/109 113/113/113
f 116/116/116 115/115/115 110/110/110
f 114/114/114 116/116/116 113/113/113
f 116/116/116 114/114/114 115/115/115
f 114/114/114 112/112/112 115/115/115
f 111/111/111 114/114/114 113/113/113
