# Rhino

g win_04
v 7.1127114295959473 0.69999998807907104 0
v 7.1127114295959473 2.2000000476837158 0
v 8.6127119064331055 2.2000000476837158 0
v 8.6127119064331055 0.69999998807907104 0
v 7.8627114295959473 0.69999998807907104 0
v 7.1127114295959473 1.4500000476837158 0
v 7.8627114295959473 2.2000000476837158 0
v 8.6127119064331055 1.4500000476837158 0
f 5 1 6 2 7 3 8 4
g win_05
v 1.1362705230712891 0.69999998807907104 0
v 1.1362705230712891 2.2000000476837158 0
v 2.6362705230712891 2.2000000476837158 0
v 2.6362705230712891 0.69999998807907104 0
v 1.8862705230712891 0.69999998807907104 0
v 1.1362705230712891 1.4500000476837158 0
v 1.8862705230712891 2.2000000476837158 0
v 2.6362705230712891 1.4500000476837158 0
f 13 9 14 10 15 11 16 12
g win_03
v 10.850000381469727 0.69999998807907104 -0.5254673957824707
v 10.850000381469727 2.2000000476837158 -0.5254673957824707
v 10.850000381469727 0.69999998807907104 -2.0254673957824707
v 10.850000381469727 2.2000000476837158 -2.0254673957824707
f 20 18 17 19
g win_02
v 9.3500003814697266 0.69999998807907104 -7.0124940872192383
v 9.3500003814697266 2.2000000476837158 -7.0124940872192383
v 9.3500003814697266 0.69999998807907104 -5.5124940872192383
v 9.3500003814697266 2.2000000476837158 -5.5124940872192383
f 24 22 21 23
g win_06
v 0.9008750319480896 0.69999998807907104 -8
v 2.4008750915527344 2.2000000476837158 -8
v 0.9008750319480896 2.2000000476837158 -8
v 1.6508749723434448 2.2000000476837158 -8
v 0.9008750319480896 1.4500000476837158 -8
v 1.6508749723434448 0.69999998807907104 -8
v 2.4008750915527344 0.69999998807907104 -8
v 2.4008750915527344 1.4500000476837158 -8
f 30 31 32 26 28 27 29 25
g win_01
v 7.1552977561950684 0.69999998807907104 -8
v 8.6552982330322266 2.2000000476837158 -8
v 8.6552982330322266 0.69999998807907104 -8
v 7.9052977561950684 0.69999998807907104 -8
v 7.1552977561950684 1.4500000476837158 -8
v 7.1552977561950684 2.2000000476837158 -8
v 7.9052977561950684 2.2000000476837158 -8
v 8.6552982330322266 1.4500000476837158 -8
f 36 33 37 38 39 34 40 35
